HIERARCHY
ROOT Pelvis
{
	OFFSET 0.000000 0.000000 0.000000
	CHANNELS 6 Xposition Yposition Zposition Xrotation Yrotation Zrotation
	JOINT LeftUpLeg_virtual
	{
		OFFSET 0.000000 0.000000 0.000000
		CHANNELS 3 Xrotation Yrotation Zrotation
		JOINT LeftUpLeg
		{
			OFFSET 18.735201 -5.666702 -4.541200
			CHANNELS 3 Xrotation Yrotation Zrotation
			JOINT LeftLeg
			{
				OFFSET -0.021200 -31.938179 0.493100
				CHANNELS 3 Xrotation Yrotation Zrotation
				JOINT LeftFoot
				{
					OFFSET 0.021200 -31.938179 -4.336299
					CHANNELS 3 Xrotation Yrotation Zrotation
					JOINT LeftToeBase
					{
						OFFSET 0.943001 -26.722000 15.023500
						CHANNELS 3 Xrotation Yrotation Zrotation
						End Site
						{
							OFFSET 0 0 0
						}
					}
				}
			}
		}
	}
	JOINT RightUpLeg_virtual
	{
		OFFSET 0.000000 0.000000 0.000000
		CHANNELS 3 Xrotation Yrotation Zrotation
		JOINT RightUpLeg
		{
			OFFSET -18.735201 -5.666702 -4.541200
			CHANNELS 3 Xrotation Yrotation Zrotation
			JOINT RightLeg
			{
				OFFSET 0.018946 -31.938133 0.493100
				CHANNELS 3 Xrotation Yrotation Zrotation
				JOINT RightFoot
				{
					OFFSET -0.018946 -31.938126 -4.336299
					CHANNELS 3 Xrotation Yrotation Zrotation
					JOINT RightToeBase
					{
						OFFSET -0.943001 -26.722004 15.023500
						CHANNELS 3 Xrotation Yrotation Zrotation
						End Site
						{
							OFFSET 0 0 0
						}
					}
				}
			}
		}
	}
	JOINT Hips_virtual
	{
		OFFSET 0.000000 0.000000 0.000000
		CHANNELS 3 Xrotation Yrotation Zrotation
		JOINT Hips
		{
			OFFSET -0.000000 -0.000000 -0.000000
			CHANNELS 3 Xrotation Yrotation Zrotation
			JOINT Spine
			{
				OFFSET 0.000000 10.199997 -0.299500
				CHANNELS 3 Xrotation Yrotation Zrotation
				JOINT Spine1
				{
					OFFSET 0.000000 11.900002 -1.516600
					CHANNELS 3 Xrotation Yrotation Zrotation
					JOINT Spine2
					{
						OFFSET 0.000000 13.600006 -2.842500
						CHANNELS 3 Xrotation Yrotation Zrotation
						JOINT Neck_virtual
						{
							OFFSET 0.000000 0.000000 0.000000
							CHANNELS 3 Xrotation Yrotation Zrotation
							JOINT Neck
							{
								OFFSET 0.000000 9.624100 -2.890100
								CHANNELS 3 Xrotation Yrotation Zrotation
								JOINT Head
								{
									OFFSET 0.000000 14.068802 -1.351900
									CHANNELS 3 Xrotation Yrotation Zrotation
									End Site
									{
										OFFSET 0 0 0
									}
								}
							}
						}
						JOINT LeftShoulder_virtual
						{
							OFFSET 0.000000 0.000000 0.000000
							CHANNELS 3 Xrotation Yrotation Zrotation
							JOINT LeftShoulder
							{
								OFFSET 15.263000 10.923401 -0.547700
								CHANNELS 3 Xrotation Yrotation Zrotation
								JOINT LeftArm
								{
									OFFSET 25.438599 -2.830597 -13.032500
									CHANNELS 3 Xrotation Yrotation Zrotation
									JOINT LeftForeArm
									{
										OFFSET 29.960503 0.000000 0.000000
										CHANNELS 3 Xrotation Yrotation Zrotation
										JOINT LeftHand
										{
											OFFSET 27.849251 0.000000 0.000000
											CHANNELS 3 Xrotation Yrotation Zrotation
											End Site
											{
												OFFSET 0 0 0
											}
										}
									}
								}
							}
						}
						JOINT RightShoulder_virtual
						{
							OFFSET 0.000000 0.000000 0.000000
							CHANNELS 3 Xrotation Yrotation Zrotation
							JOINT RightShoulder
							{
								OFFSET -15.263000 10.923401 -0.547700
								CHANNELS 3 Xrotation Yrotation Zrotation
								JOINT RightArm
								{
									OFFSET -25.438599 -2.830597 -13.032500
									CHANNELS 3 Xrotation Yrotation Zrotation
									JOINT RightForeArm
									{
										OFFSET -29.960503 0.000000 0.000000
										CHANNELS 3 Xrotation Yrotation Zrotation
										JOINT RightHand
										{
											OFFSET -27.849251 0.000000 0.000000
											CHANNELS 3 Xrotation Yrotation Zrotation
											End Site
											{
												OFFSET 0 0 0
											}
										}
									}
								}
							}
						}
					}
				}
			}
		}
	}
}
MOTION
Frames: 12
Frame Time: 0.03333333
-2.837653 121.784378 306.693970 0.000000 0.000000 0.000000 -16.799327 -59.077755 11.163724 -70.144745 -15.192921 28.970418 81.929854 12.657944 9.462138 16.946200 6.180222 18.672513 0.000000 0.000000 0.000000 -23.475937 -40.518352 20.837331 -70.533294 -19.651409 -0.034986 88.712901 6.608183 1.025471 23.621219 6.750714 20.296351 0.000000 0.000000 0.000000 0.232873 -23.857187 3.477278 3.938983 -9.694539 7.732457 32.079937 6.447935 -17.154377 15.929304 5.101172 -8.230608 0.000000 0.000000 0.000000 9.787015 0.932560 -4.256338 3.431100 1.183571 -0.812603 0.000000 0.000000 0.000000 15.734304 1.032346 -2.166397 4.317759 -3.738312 -1.244498 -48.001302 -15.318014 -25.734302 -8.837832 -65.842901 -1.164309 0.000000 0.000000 0.000000 14.027392 3.648683 -1.415562 8.363217 18.028298 -11.798334 -83.726160 -21.248358 33.099677 -66.023040 42.995901 53.126328 0.000000 0.000000 0.000000 
-3.096129 119.847519 311.949249 0.000000 0.000000 0.000000 -14.776735 -59.276746 12.298387 -68.850766 -15.121906 29.253588 80.302193 11.931089 9.038545 15.852850 5.714781 17.316389 0.000000 0.000000 0.000000 -23.192934 -40.921323 20.567675 -70.144520 -19.792949 0.005312 81.974394 6.907012 2.226688 18.829233 5.812969 22.081778 0.000000 0.000000 0.000000 0.292311 -24.295902 3.666756 5.086071 -8.586624 8.283565 32.088191 6.357036 -16.845847 15.984051 4.966238 -8.092460 0.000000 0.000000 0.000000 10.006540 0.783294 -4.269427 3.560168 1.179466 -0.935609 0.000000 0.000000 0.000000 15.901649 0.912488 -2.056732 4.476050 -3.538447 -1.669582 -50.627012 -13.619963 -26.590538 -11.872726 -64.770773 -3.660427 0.000000 0.000000 0.000000 14.326708 3.538731 -1.223421 8.733210 17.970789 -11.193060 -82.071594 -22.076131 34.596653 -65.518699 43.462539 53.333529 0.000000 0.000000 0.000000 
-3.224825 117.696793 317.606049 0.000000 0.000000 0.000000 -12.755549 -58.853049 13.673221 -67.500560 -15.011738 29.692171 78.124059 11.368905 8.684037 14.386629 5.394968 16.195106 0.000000 0.000000 0.000000 -22.062778 -39.983617 20.341526 -68.653742 -19.533393 0.010398 74.983053 7.091359 3.396077 13.892573 4.761940 23.669252 0.000000 0.000000 0.000000 0.354563 -24.791683 3.835857 6.202300 -7.434781 8.686051 32.007523 6.270411 -16.513640 15.967775 4.825512 -7.938948 0.000000 0.000000 0.000000 10.308833 0.618935 -4.240619 3.721171 1.177137 -1.042010 0.000000 0.000000 0.000000 16.025231 0.803469 -1.939761 4.651086 -3.208811 -2.107079 -52.991384 -11.744199 -27.378485 -14.630096 -63.493623 -5.897769 0.000000 0.000000 0.000000 14.552403 3.392508 -1.042596 9.057625 17.790413 -10.583677 -80.244600 -22.737111 36.050292 -64.718945 44.094516 53.222938 0.000000 0.000000 0.000000 
-3.324250 115.681396 323.883789 0.000000 0.000000 0.000000 -10.917032 -58.098484 14.800911 -66.111716 -14.767438 30.053259 75.565880 10.956622 8.307666 12.642235 5.244183 15.173788 0.000000 0.000000 0.000000 -19.901220 -38.770876 19.830657 -65.951835 -19.062004 -0.270839 68.469095 6.742365 4.341395 9.678768 3.432553 24.456201 0.000000 0.000000 0.000000 0.399142 -25.363913 3.997839 7.333080 -6.234115 9.078909 31.858680 6.169343 -16.165460 15.889656 4.675217 -7.766807 0.000000 0.000000 0.000000 10.638597 0.427999 -4.160907 3.894618 1.168319 -1.127570 0.000000 0.000000 0.000000 16.103158 0.696806 -1.804890 4.850088 -2.801604 -2.492121 -54.953602 -9.753307 -27.912265 -16.835837 -61.881432 -7.612597 0.000000 0.000000 0.000000 14.725178 3.221723 -0.864616 9.370004 17.521797 -9.947762 -78.357324 -23.280522 37.443500 -63.939621 44.880029 53.077567 0.000000 0.000000 0.000000 
-3.308608 113.712280 330.506256 0.000000 0.000000 0.000000 -9.019731 -57.525697 15.713789 -64.621745 -14.432666 30.294037 72.936790 10.598840 7.890700 10.803650 5.163628 14.140147 0.000000 0.000000 0.000000 -17.509074 -36.461794 19.188390 -62.635533 -18.258844 -0.592830 62.034531 6.144325 4.962041 5.513137 2.042268 24.576701 0.000000 0.000000 0.000000 0.430132 -26.157656 4.131859 8.407273 -5.328395 9.412086 31.629008 6.033977 -15.745046 15.748529 4.503535 -7.545861 0.000000 0.000000 0.000000 11.029016 0.192496 -4.049478 4.098198 1.144054 -1.201923 0.000000 0.000000 0.000000 16.141696 0.554754 -1.635915 5.070208 -2.454385 -2.758746 -56.356564 -7.840004 -28.392767 -18.428033 -60.144344 -8.873660 0.000000 0.000000 0.000000 14.916066 3.027940 -0.677360 9.728080 17.181672 -9.224475 -76.287558 -23.733896 38.813574 -63.083668 45.804642 52.864127 0.000000 0.000000 0.000000 
-3.245214 111.633301 337.334930 0.000000 0.000000 0.000000 -7.461913 -56.553550 16.258195 -63.198559 -13.930661 30.419101 70.098443 10.286618 7.412197 8.790103 5.161787 13.050912 0.000000 0.000000 0.000000 -14.742893 -33.997140 18.319652 -58.709396 -17.353076 -1.100019 55.589694 4.926041 5.137290 1.317506 0.258136 23.531214 0.000000 0.000000 0.000000 0.438178 -26.962855 4.228874 9.348245 -4.344043 9.595995 31.318077 5.903463 -15.263649 15.543269 4.333979 -7.282091 0.000000 0.000000 0.000000 11.406724 -0.043347 -3.927525 4.297762 1.121964 -1.272816 0.000000 0.000000 0.000000 16.093177 0.400108 -1.417307 5.269254 -2.130900 -2.829284 -57.407330 -6.045451 -28.700889 -19.565362 -58.347178 -9.722938 0.000000 0.000000 0.000000 15.069014 2.812003 -0.486889 10.062321 16.728745 -8.438854 -73.967458 -24.056387 40.244393 -62.055451 46.861921 52.535694 0.000000 0.000000 0.000000 
-3.200826 109.631180 344.227295 0.000000 0.000000 0.000000 -6.327559 -55.238684 16.429035 -61.899197 -13.316501 30.424087 67.025336 9.929248 6.867600 6.647555 5.167010 11.832996 0.000000 0.000000 0.000000 -11.814381 -31.512601 17.142846 -54.498824 -16.316934 -2.006194 49.245165 3.487725 4.834825 -3.053632 -1.521608 21.616924 0.000000 0.000000 0.000000 0.363392 -27.717237 4.254964 9.968953 -3.456162 9.553907 30.950159 5.721334 -14.717261 15.292681 4.138865 -6.970222 0.000000 0.000000 0.000000 11.831648 -0.300180 -3.799496 4.516112 1.090866 -1.343773 0.000000 0.000000 0.000000 15.991648 0.218499 -1.139187 5.459681 -1.898064 -2.651983 -57.848820 -4.549717 -28.766581 -20.006281 -56.464819 -9.981270 0.000000 0.000000 0.000000 15.158483 2.559162 -0.278091 10.315966 16.159951 -7.538453 -71.309292 -24.374042 41.861536 -60.842724 47.899567 52.129722 0.000000 0.000000 0.000000 
-3.303172 107.867134 350.600739 0.000000 0.000000 0.000000 -5.562564 -53.016987 16.457185 -60.704638 -12.527850 30.507484 63.968232 9.689820 6.212049 4.587260 5.360204 10.588715 0.000000 0.000000 0.000000 -9.402615 -27.962192 16.342276 -50.611172 -15.207391 -2.433123 43.175125 2.147827 3.994664 -7.287359 -2.868860 19.003628 0.000000 0.000000 0.000000 0.200104 -28.422659 4.215579 10.296346 -2.774633 9.382937 30.500900 5.533722 -14.097862 14.969229 3.944924 -6.600750 0.000000 0.000000 0.000000 12.221432 -0.579931 -3.660067 4.720631 1.041465 -1.408170 0.000000 0.000000 0.000000 15.942975 0.054874 -0.773535 5.731952 -1.614540 -2.072985 -57.030157 -3.593426 -28.449102 -19.123345 -54.386378 -9.233114 0.000000 0.000000 0.000000 15.163660 2.255881 -0.068473 10.497908 15.433007 -6.623721 -68.363022 -24.676201 43.631836 -59.397169 48.845367 51.568529 0.000000 0.000000 0.000000 
-3.411047 105.852638 357.081726 0.000000 0.000000 0.000000 -5.263918 -50.542464 16.132263 -59.765979 -11.670384 30.458098 60.983556 9.404481 5.443841 2.608795 5.573216 9.158748 0.000000 0.000000 0.000000 -7.561866 -24.124255 16.206263 -47.420118 -14.283205 -2.193501 38.437064 1.074276 2.827054 -10.743861 -3.674461 16.119086 0.000000 0.000000 0.000000 -0.066345 -29.102815 4.077460 10.273473 -2.363181 8.793442 29.821043 5.382111 -13.316954 14.482817 3.763021 -6.125108 0.000000 0.000000 0.000000 12.770015 -0.873022 -3.587991 5.005240 0.981150 -1.511745 0.000000 0.000000 0.000000 15.547686 -0.162413 -0.457747 5.696609 -1.566471 -1.735694 -57.361704 -2.547241 -28.998528 -19.628314 -53.087533 -9.765800 0.000000 0.000000 0.000000 15.108477 1.916684 0.125196 10.642277 14.569985 -5.808099 -64.901298 -24.703259 45.608786 -57.792143 49.957551 50.978445 0.000000 0.000000 0.000000 
-3.490962 103.476334 363.515167 0.000000 0.000000 0.000000 -5.241479 -47.664448 15.601306 -58.910894 -10.723506 30.318800 57.986407 9.303354 4.655361 0.690975 5.986994 7.860342 0.000000 0.000000 0.000000 -5.255673 -20.256895 15.631873 -43.681167 -13.203959 -2.476031 36.297920 0.071939 1.207295 -12.529877 -3.990843 12.625156 0.000000 0.000000 0.000000 -0.473976 -29.723689 3.826835 9.969797 -2.277436 7.955887 29.052073 5.269060 -12.484600 13.924572 3.610433 -5.604957 0.000000 0.000000 0.000000 13.479996 -1.146358 -3.620035 5.377481 0.925776 -1.671650 0.000000 0.000000 0.000000 15.028300 -0.349330 -0.145662 5.565164 -1.496251 -1.377375 -57.279910 -1.501342 -29.582738 -19.786022 -51.761168 -10.111321 0.000000 0.000000 0.000000 15.011064 1.602923 0.276449 10.780070 13.741426 -5.146479 -60.703470 -23.839341 47.933649 -56.382604 51.832069 50.794122 0.000000 0.000000 0.000000 
-3.086483 100.307152 370.613098 0.000000 0.000000 0.000000 -4.787648 -45.324780 15.584221 -58.002991 -9.986304 30.443003 55.923577 9.177168 3.764589 -0.639438 6.392628 6.421282 0.000000 0.000000 0.000000 -3.477216 -15.503254 14.515007 -40.307829 -11.739597 -3.096142 35.489181 0.119183 0.030179 -13.485925 -3.395702 10.655000 0.000000 0.000000 0.000000 -1.131281 -30.263865 3.412671 9.085035 -2.411308 6.761017 28.030150 5.175815 -11.587055 13.196523 3.471566 -5.034785 0.000000 0.000000 0.000000 13.593423 -1.333487 -3.309476 5.465202 0.885166 -1.626679 0.000000 0.000000 0.000000 14.380519 -0.502158 0.172437 5.323603 -1.377241 -0.935522 -56.372106 -0.677462 -30.091058 -19.198960 -50.460884 -9.972874 0.000000 0.000000 0.000000 14.845875 1.123026 0.499259 10.791938 12.167778 -4.125477 -55.373566 -22.658297 50.958225 -54.730910 53.833099 50.782159 0.000000 0.000000 0.000000 
-2.636196 97.509552 377.589844 0.000000 0.000000 0.000000 -4.584826 -42.713380 15.207503 -57.191547 -9.096397 30.360683 53.977339 9.173730 2.806914 -1.919371 6.939324 4.970117 0.000000 0.000000 0.000000 -1.438451 -9.947372 13.245396 -36.429589 -10.095618 -3.717873 34.843985 0.382551 -0.963173 -14.284162 -2.664628 9.161990 0.000000 0.000000 0.000000 -1.798967 -30.727993 2.936990 8.307662 -2.713678 5.399384 26.973119 5.087118 -10.697117 12.427817 3.350662 -4.461828 0.000000 0.000000 0.000000 13.378316 -1.525770 -2.978066 5.393959 0.824317 -1.564707 0.000000 0.000000 0.000000 13.615598 -0.634974 0.456791 4.976952 -1.270559 -0.622774 -55.286539 0.021924 -31.017545 -18.680646 -49.537842 -10.090005 0.000000 0.000000 0.000000 14.547306 0.610485 0.687260 10.678625 10.431307 -3.233654 -50.239248 -21.233098 52.946855 -52.123912 55.585579 49.441745 0.000000 0.000000 0.000000 
